<svg xmlns="http://www.w3.org/2000/svg" width="1950" height="600" viewBox="0 0 1950 600"><rect width="100%" height="100%" fill="#008000"/><path fill="#FFFFFF" d="M517.865 275.57h71.52v87.16q-16.39 12.07-34.94 17.66-18.55 5.58-39.7 5.58-26.38 0-47.76-8.19-21.38-8.2-36.5-22.8-15.13-14.6-23.32-34.86-8.2-20.27-8.2-44.26 0-24.28 7.9-44.55 7.9-20.26 22.42-34.86 14.53-14.61 35.24-22.65 20.71-8.05 46.49-8.05 13.11 0 24.51 2.09 11.4 2.08 21.16 5.73 9.76 3.66 17.8 8.87 8.05 5.21 14.76 11.47l-11.48 18.18q-2.68 4.32-7 5.29t-9.39-2.16q-4.91-2.83-9.83-5.66t-10.95-4.92q-6.04-2.08-13.56-3.43-7.53-1.34-17.36-1.34-15.94 0-28.83 5.37-12.89 5.36-21.98 15.34-9.09 9.99-14.01 23.99-4.91 14.01-4.91 31.29 0 18.48 5.29 33.01 5.29 14.52 14.9 24.58t23.17 15.35 30.24 5.29q11.92 0 21.31-2.53 9.39-2.54 18.33-6.86v-39.04h-27.12q-3.87 0-6.04-2.16-2.16-2.16-2.16-5.29zm136.93-35.62 2.24 17.29q7.15-13.71 16.99-21.53 9.83-7.82 23.24-7.82 10.58 0 16.99 4.61l-2.39 27.57q-.74 2.68-2.16 3.8-1.41 1.12-3.8 1.12-2.23 0-6.63-.75-4.39-.74-8.57-.74-6.11 0-10.87 1.78-4.77 1.79-8.57 5.14-3.8 3.36-6.71 8.12-2.9 4.77-5.43 10.88v94.17h-36.81V230.72h21.61q5.66 0 7.9 2.01 2.23 2.01 2.97 7.22m107.73 49.62h69.44q0-7.15-2.02-13.48-2.01-6.34-6.03-11.1-4.02-4.77-10.21-7.53-6.18-2.75-14.37-2.75-15.95 0-25.11 9.08-9.16 9.09-11.7 25.78m93.87 22.2h-94.61q.89 11.77 4.17 20.34t8.64 14.16q5.37 5.58 12.74 8.34 7.38 2.76 16.32 2.76t15.42-2.09 11.32-4.62 8.49-4.62q3.65-2.08 7.08-2.08 4.62 0 6.86 3.42l10.58 13.41q-6.11 7.16-13.71 12t-15.87 7.75q-8.27 2.9-16.84 4.09t-16.61 1.19q-15.94 0-29.65-5.28-13.71-5.29-23.84-15.65-10.14-10.35-15.95-25.63-5.81-15.27-5.81-35.39 0-15.64 5.07-29.42t14.53-23.99 23.09-16.17q13.64-5.96 30.77-5.96 14.45 0 26.67 4.62t21.01 13.49q8.79 8.86 13.78 21.75t4.99 29.43q0 8.34-1.78 11.25-1.79 2.9-6.86 2.9m92.08-8.34q6.86 0 11.92-1.86 5.07-1.87 8.42-5.14 3.36-3.28 5.07-7.9t1.71-10.13q0-11.33-6.78-17.96t-20.34-6.63q-13.55 0-20.33 6.63t-6.78 17.96q0 5.36 1.71 9.98t5.07 7.97q3.35 3.35 8.49 5.22 5.14 1.86 11.84 1.86m41.58 87.01q0-4.47-2.69-7.3-2.68-2.83-7.3-4.39-4.62-1.57-10.8-2.31-6.18-.75-13.11-1.12t-14.31-.67q-7.37-.3-14.37-1.19-6.11 3.42-9.91 8.04t-3.8 10.73q0 4.02 2.01 7.53 2.01 3.5 6.41 6.03 4.39 2.53 11.39 3.95 7.01 1.41 17.14 1.41 10.28 0 17.73-1.56t12.29-4.32q4.85-2.76 7.08-6.56 2.24-3.8 2.24-8.27m-7.31-154.51h43.96v13.71q0 6.56-7.9 8.04l-13.71 2.54q3.13 7.9 3.13 17.28 0 11.33-4.54 20.49-4.55 9.16-12.59 15.57-8.05 6.41-19 9.91t-23.62 3.5q-4.47 0-8.64-.45-4.17-.44-8.19-1.19-7.15 4.32-7.15 9.69 0 4.62 4.24 6.78 4.25 2.16 11.25 3.05t15.94 1.12q8.94.22 18.33.97 9.39.74 18.33 2.6 8.94 1.87 15.94 5.89t11.25 10.95 4.25 17.81q0 10.13-4.99 19.66-5 9.54-14.46 16.99t-23.24 11.99q-13.78 4.55-31.37 4.55-17.28 0-30.09-3.35-12.82-3.36-21.31-8.94-8.49-5.59-12.67-12.89-4.17-7.3-4.17-15.2 0-10.73 6.48-17.95 6.49-7.23 17.81-11.55-6.11-3.13-9.69-8.35-3.57-5.21-3.57-13.7 0-3.43 1.26-7.08 1.27-3.65 3.73-7.23 2.46-3.57 6.18-6.78 3.73-3.2 8.79-5.73-11.62-6.26-18.25-16.69t-6.63-24.44q0-11.32 4.55-20.49 4.54-9.16 12.66-15.64t19.22-9.91 24.21-3.43q9.84 0 18.48 2.02 8.64 2.01 15.79 5.88m134.85-7.6q16.99 0 30.92 5.51 13.93 5.52 23.84 15.65 9.9 10.13 15.27 24.73 5.36 14.61 5.36 32.64 0 18.17-5.36 32.78-5.37 14.6-15.27 24.88-9.91 10.28-23.84 15.79t-30.92 5.51q-17.14 0-31.14-5.51-14.01-5.51-23.92-15.79-9.9-10.28-15.34-24.88-5.44-14.61-5.44-32.78 0-18.03 5.44-32.64 5.44-14.6 15.34-24.73 9.91-10.13 23.92-15.65 14-5.51 31.14-5.51m0 129.19q19.07 0 28.23-12.82 9.17-12.81 9.17-37.55 0-24.73-9.17-37.69-9.16-12.97-28.23-12.97-19.37 0-28.68 13.04-9.32 13.04-9.32 37.62 0 24.59 9.32 37.48 9.31 12.89 28.68 12.89m136.04-117.57 2.23 17.29q7.15-13.71 16.99-21.53 9.83-7.82 23.24-7.82 10.58 0 16.99 4.61l-2.39 27.57q-.74 2.68-2.16 3.8-1.41 1.12-3.8 1.12-2.23 0-6.63-.75-4.39-.74-8.57-.74-6.1 0-10.87 1.78-4.77 1.79-8.57 5.14-3.8 3.36-6.7 8.12-2.91 4.77-5.44 10.88v94.17h-36.81V230.72h21.61q5.66 0 7.9 2.01 2.23 2.01 2.98 7.22m79.86-9.23h36.95v152.87h-36.95zm42.02-44.55q0 4.76-1.94 8.94-1.94 4.17-5.14 7.3t-7.52 4.99-9.24 1.86q-4.77 0-9.02-1.86-4.24-1.86-7.37-4.99t-4.99-7.3q-1.87-4.18-1.87-8.94 0-4.92 1.87-9.24 1.86-4.32 4.99-7.45t7.37-4.99q4.25-1.87 9.02-1.87 4.92 0 9.24 1.87 4.32 1.86 7.52 4.99t5.14 7.45 1.94 9.24m100.13 42.16q16.98 0 30.91 5.51 13.94 5.52 23.84 15.65 9.91 10.13 15.28 24.73 5.36 14.61 5.36 32.64 0 18.17-5.36 32.78-5.37 14.6-15.28 24.88-9.9 10.28-23.84 15.79-13.93 5.51-30.91 5.51-17.14 0-31.14-5.51-14.01-5.51-23.92-15.79t-15.35-24.88q-5.43-14.61-5.43-32.78 0-18.03 5.43-32.64 5.44-14.6 15.35-24.73t23.92-15.65q14-5.51 31.14-5.51m0 129.19q19.07 0 28.23-12.82 9.16-12.81 9.16-37.55 0-24.73-9.16-37.69-9.16-12.97-28.23-12.97-19.37 0-28.69 13.04-9.31 13.04-9.31 37.62 0 24.59 9.31 37.48 9.32 12.89 28.69 12.89"/></svg>