<svg xmlns="http://www.w3.org/2000/svg" width="1950" height="600" viewBox="0 0 1950 600"><rect width="100%" height="100%" fill="#008000"/><path fill="#FFFFFF" d="M483.22 268.57h21.06l-43.95 110.81h-24.2l-43.95-110.81h22.03q3.02 0 5.02 1.41 2 1.4 2.65 3.56l21.38 59.18q1.73 5.19 3.03 10.16 1.29 4.96 2.26 9.93 1.08-4.97 2.38-9.93 1.3-4.97 3.13-10.16l21.82-59.18q.75-2.16 2.7-3.56 1.94-1.41 4.64-1.41m93.75 82.19v-18.68q-11.56.54-19.44 1.99-7.89 1.46-12.64 3.73t-6.8 5.29q-2.06 3.03-2.06 6.59 0 7.02 4.16 10.04 4.16 3.03 10.86 3.03 8.2 0 14.2-2.97 5.99-2.97 11.72-9.02m-56.38-58.21-4.75-8.53q19.11-17.5 46.01-17.5 9.72 0 17.38 3.19 7.67 3.18 12.96 8.85 5.3 5.67 8.05 13.56 2.75 7.88 2.75 17.28v69.98H590.9q-3.78 0-5.83-1.13-2.06-1.14-3.24-4.59l-2.38-8q-4.21 3.78-8.21 6.65-3.99 2.86-8.31 4.8-4.32 1.95-9.24 2.97-4.91 1.03-10.85 1.03-7.02 0-12.96-1.89t-10.26-5.67-6.7-9.4q-2.37-5.61-2.37-13.07 0-4.21 1.4-8.37 1.4-4.15 4.59-7.93t8.26-7.13q5.08-3.35 12.48-5.83 7.39-2.49 17.22-4.05 9.83-1.57 22.47-1.89v-6.48q0-11.13-4.76-16.47-4.75-5.35-13.71-5.35-6.48 0-10.75 1.51-4.26 1.51-7.5 3.4t-5.89 3.41q-2.65 1.51-5.89 1.51-2.8 0-4.75-1.46-1.94-1.46-3.13-3.4m130.57-19.12 1.84 8.75q3.35-3.35 7.07-6.21 3.73-2.86 7.89-4.86 4.15-2 8.91-3.13 4.75-1.14 10.36-1.14 9.08 0 16.1 3.08t11.71 8.64q4.7 5.56 7.13 13.29 2.43 7.72 2.43 17.01v70.52h-26.67v-70.52q0-10.16-4.65-15.72-4.64-5.56-14.15-5.56-6.91 0-12.96 3.13-6.04 3.13-11.44 8.53v80.14h-26.68V268.57h16.31q5.18 0 6.8 4.86m168.27 73.12v-49.68q-4.54-5.51-9.89-7.78-5.34-2.27-11.5-2.27-6.05 0-10.91 2.27t-8.31 6.86q-3.46 4.59-5.29 11.66-1.84 7.08-1.84 16.69 0 9.72 1.57 16.47 1.56 6.75 4.48 11.02 2.91 4.26 7.13 6.15 4.21 1.89 9.39 1.89 8.32 0 14.15-3.45 5.83-3.46 11.02-9.83m0-127.66h26.67v160.49h-16.31q-5.29 0-6.69-4.86l-2.27-10.69q-6.7 7.67-15.39 12.42T785.19 381q-9.07 0-16.63-3.78t-13.02-10.96q-5.45-7.18-8.42-17.77-2.97-10.58-2.97-24.19 0-12.31 3.35-22.9 3.35-10.58 9.61-18.36 6.26-7.77 15.01-12.15 8.75-4.37 19.66-4.37 9.29 0 15.87 2.92 6.59 2.91 11.78 7.88zm79.7 160.49h-26.68V268.57h16.31q5.19 0 6.81 4.86l1.72 8.21q2.92-3.24 6.11-5.94 3.18-2.7 6.8-4.64 3.62-1.95 7.78-3.08 4.15-1.14 9.12-1.14 10.48 0 17.23 5.67t10.1 15.07q2.59-5.51 6.48-9.45 3.88-3.94 8.53-6.43 4.64-2.48 9.88-3.67t10.53-1.19q9.18 0 16.31 2.81t11.99 8.21 7.39 13.18q2.54 7.77 2.54 17.82v70.52h-26.67v-70.52q0-10.59-4.65-15.93-4.64-5.35-13.61-5.35-4.1 0-7.61 1.4-3.51 1.41-6.16 4.05-2.64 2.65-4.15 6.65-1.52 3.99-1.52 9.18v70.52h-26.78v-70.52q0-11.13-4.48-16.2-4.48-5.08-13.12-5.08-5.84 0-10.86 2.86t-9.34 7.83zm203.26-112.54q12.31 0 22.41 4 10.09 4 17.28 11.34 7.18 7.34 11.07 17.93 3.88 10.58 3.88 23.65 0 13.18-3.88 23.76-3.89 10.58-11.07 18.04-7.19 7.45-17.28 11.44-10.1 4-22.41 4-12.42 0-22.58-4-10.15-3.99-17.33-11.44-7.18-7.46-11.12-18.04-3.95-10.58-3.95-23.76 0-13.07 3.95-23.65 3.94-10.59 11.12-17.93t17.33-11.34q10.16-4 22.58-4m0 93.64q13.82 0 20.46-9.29t6.64-27.21q0-17.93-6.64-27.33-6.64-9.39-20.46-9.39-14.04 0-20.79 9.45t-6.75 27.27 6.75 27.16 20.79 9.34m98.6-85.21 1.62 12.53q5.18-9.94 12.31-15.61t16.85-5.67q7.67 0 12.31 3.35l-1.73 19.98q-.54 1.94-1.56 2.75-1.03.81-2.76.81-1.62 0-4.8-.54-3.19-.54-6.21-.54-4.43 0-7.89 1.3-3.45 1.29-6.21 3.72-2.75 2.43-4.86 5.89-2.1 3.46-3.94 7.88v68.26h-26.67V268.57h15.66q4.1 0 5.72 1.46t2.16 5.24m115.56 75.49v-18.68q-11.56.54-19.44 1.99-7.88 1.46-12.64 3.73-4.75 2.27-6.8 5.29-2.05 3.03-2.05 6.59 0 7.02 4.16 10.04 4.15 3.03 10.85 3.03 8.21 0 14.2-2.97 6-2.97 11.72-9.02m-56.38-58.21-4.75-8.53q19.12-17.5 46.01-17.5 9.72 0 17.39 3.19 7.67 3.18 12.96 8.85t8.04 13.56q2.76 7.88 2.76 17.28v69.98h-12.1q-3.78 0-5.83-1.13-2.05-1.14-3.24-4.59l-2.38-8q-4.21 3.78-8.2 6.65-4 2.86-8.32 4.8-4.32 1.95-9.23 2.97-4.92 1.03-10.86 1.03-7.02 0-12.96-1.89t-10.26-5.67-6.69-9.4q-2.38-5.61-2.38-13.07 0-4.21 1.4-8.37 1.41-4.15 4.59-7.93 3.19-3.78 8.27-7.13 5.07-3.35 12.47-5.83 7.4-2.49 17.23-4.05 9.82-1.57 22.46-1.89v-6.48q0-11.13-4.75-16.47-4.75-5.35-13.72-5.35-6.48 0-10.74 1.51-4.27 1.51-7.51 3.4t-5.89 3.41q-2.64 1.51-5.88 1.51-2.81 0-4.75-1.46-1.95-1.46-3.14-3.4m128.52 18.68h50.33q0-5.18-1.46-9.77-1.45-4.59-4.37-8.05-2.92-3.45-7.4-5.45t-10.42-2q-11.56 0-18.2 6.59t-8.48 18.68m68.04 16.09h-68.58q.65 8.54 3.03 14.75 2.37 6.21 6.26 10.26t9.24 6.04q5.34 2 11.82 2t11.18-1.51 8.21-3.35q3.51-1.83 6.15-3.35 2.65-1.51 5.13-1.51 3.35 0 4.97 2.49l7.67 9.72q-4.43 5.18-9.94 8.69-5.5 3.51-11.5 5.62-5.99 2.1-12.2 2.97-6.21.86-12.04.86-11.56 0-21.5-3.83-9.93-3.84-17.28-11.34-7.34-7.51-11.55-18.58t-4.21-25.65q0-11.34 3.67-21.33t10.53-17.39 16.74-11.72 22.3-4.32q10.48 0 19.33 3.35 8.86 3.35 15.23 9.78 6.37 6.42 9.99 15.76 3.62 9.35 3.62 21.33 0 6.05-1.3 8.16-1.29 2.1-4.97 2.1m99.9-46.76-6.04 9.61q-1.08 1.73-2.27 2.43t-3.03.7q-1.94 0-4.15-1.08-2.22-1.08-5.13-2.43-2.92-1.35-6.65-2.43-3.72-1.08-8.8-1.08-7.88 0-12.36 3.35-4.49 3.35-4.49 8.75 0 3.56 2.33 5.99 2.32 2.43 6.15 4.27 3.84 1.84 8.7 3.29 4.86 1.46 9.88 3.19t9.88 3.94q4.86 2.22 8.69 5.62 3.84 3.4 6.16 8.15t2.32 11.45q0 7.99-2.86 14.74t-8.48 11.67q-5.61 4.91-13.88 7.66-8.26 2.76-19.06 2.76-5.72 0-11.18-1.03-5.45-1.02-10.47-2.86t-9.29-4.32-7.51-5.4l6.16-10.15q1.19-1.84 2.81-2.81t4.1-.97q2.49 0 4.7 1.4 2.21 1.41 5.13 3.03t6.86 3.02 9.99 1.4q4.75 0 8.15-1.13t5.62-2.97q2.21-1.84 3.24-4.27 1.02-2.43 1.02-5.02 0-3.89-2.32-6.37t-6.15-4.32q-3.84-1.84-8.75-3.29-4.92-1.46-10.05-3.19t-10.04-4.05-8.75-5.89q-3.83-3.56-6.15-8.74-2.33-5.19-2.33-12.53 0-6.81 2.7-12.96 2.7-6.16 7.94-10.75t13.07-7.34q7.83-2.76 18.09-2.76 11.45 0 20.84 3.78 9.4 3.78 15.66 9.94"/></svg>